<svg xmlns="http://www.w3.org/2000/svg" xmlns:xlink="http://www.w3.org/1999/xlink" width="500" zoomAndPan="magnify" viewBox="0 0 375 374.999991" height="500" preserveAspectRatio="xMidYMid meet" version="1.0"><path fill="rgb(32.159424%, 44.309998%, 100%)" d="M 159.167969 255.546875 C 161.964844 255.546875 164.230469 257.8125 164.230469 260.609375 C 164.230469 263.371094 161.964844 265.601562 159.167969 265.601562 C 156.40625 265.601562 154.140625 263.371094 154.140625 260.609375 C 154.140625 257.8125 156.40625 255.546875 159.167969 255.546875 Z M 159.167969 247.726562 C 152.109375 247.726562 146.316406 253.519531 146.316406 260.609375 C 146.316406 267.667969 152.109375 273.460938 159.167969 273.460938 C 166.226562 273.460938 172.050781 267.632812 172.050781 260.609375 C 172.050781 253.519531 166.226562 247.726562 159.167969 247.726562 Z M 253.882812 242.199219 C 260.34375 242.199219 265.601562 247.457031 265.601562 253.882812 C 265.601562 260.34375 260.34375 265.601562 253.882812 265.601562 C 247.457031 265.601562 242.164062 260.34375 242.164062 253.882812 C 242.164062 247.457031 247.457031 242.199219 253.882812 242.199219 Z M 253.882812 234.410156 C 243.164062 234.410156 234.375 243.164062 234.375 253.882812 C 234.375 264.636719 243.164062 273.460938 253.882812 273.460938 C 264.636719 273.460938 273.460938 264.605469 273.460938 253.882812 C 273.460938 243.199219 264.636719 234.410156 253.882812 234.410156 Z M 157.238281 232.277344 L 161.132812 232.277344 L 161.132812 234.90625 C 161.132812 236.738281 162.398438 238.304688 164.164062 238.703125 C 166.625 239.269531 168.988281 240.269531 171.121094 241.597656 C 172.683594 242.566406 174.683594 242.332031 175.980469 241.035156 L 177.8125 239.203125 L 180.574219 241.964844 L 178.710938 243.796875 C 177.445312 245.09375 177.210938 247.09375 178.179688 248.625 C 179.511719 250.753906 180.476562 253.117188 181.042969 255.582031 C 181.441406 257.378906 183.003906 258.613281 184.835938 258.644531 L 187.5 258.644531 L 187.5 262.539062 L 184.871094 262.539062 C 183.039062 262.539062 181.441406 263.804688 181.042969 265.570312 C 180.476562 268.03125 179.511719 270.363281 178.179688 272.527344 C 177.210938 274.058594 177.445312 276.089844 178.710938 277.355469 L 180.574219 279.253906 L 177.8125 281.980469 L 175.980469 280.117188 C 174.683594 278.851562 172.683594 278.621094 171.152344 279.585938 C 168.988281 280.917969 166.660156 281.882812 164.195312 282.449219 C 162.398438 282.847656 161.132812 284.414062 161.132812 286.277344 L 161.132812 288.90625 L 157.238281 288.90625 L 157.238281 286.277344 C 157.238281 284.445312 155.972656 282.882812 154.207031 282.449219 C 151.710938 281.882812 149.378906 280.949219 147.25 279.585938 C 145.683594 278.621094 143.6875 278.851562 142.390625 280.117188 L 140.523438 281.980469 L 137.761719 279.21875 L 139.625 277.355469 C 140.925781 276.089844 141.125 274.058594 140.191406 272.527344 C 138.828125 270.398438 137.863281 268.03125 137.296875 265.570312 C 136.929688 263.804688 135.332031 262.539062 133.5 262.507812 L 130.871094 262.507812 L 130.871094 258.613281 L 133.5 258.613281 C 135.332031 258.613281 136.894531 257.378906 137.296875 255.582031 C 137.863281 253.117188 138.828125 250.753906 140.191406 248.625 C 141.15625 247.09375 140.925781 245.09375 139.625 243.796875 L 137.761719 241.933594 L 140.523438 239.167969 L 142.390625 241.035156 C 143.65625 242.296875 145.683594 242.53125 147.21875 241.566406 C 149.347656 240.234375 151.710938 239.269531 154.175781 238.703125 C 155.9375 238.304688 157.238281 236.738281 157.238281 234.90625 Z M 153.308594 224.453125 C 151.144531 224.453125 149.414062 226.183594 149.414062 228.347656 L 149.414062 232.378906 C 148.28125 232.742188 147.183594 233.175781 146.117188 233.710938 L 143.289062 230.914062 C 141.757812 229.382812 139.292969 229.382812 137.761719 230.914062 L 129.472656 239.203125 C 127.972656 240.699219 127.972656 243.164062 129.472656 244.695312 L 132.300781 247.523438 C 131.800781 248.589844 131.335938 249.6875 130.9375 250.820312 L 126.941406 250.820312 C 124.8125 250.820312 123.046875 252.585938 123.046875 254.75 L 123.046875 266.46875 C 123.046875 268.597656 124.8125 270.363281 126.941406 270.363281 L 130.9375 270.363281 C 131.335938 271.460938 131.769531 272.5625 132.300781 273.660156 L 129.472656 276.488281 C 127.972656 277.988281 127.972656 280.449219 129.472656 282.015625 L 137.761719 290.304688 C 139.292969 291.804688 141.757812 291.804688 143.289062 290.304688 L 146.117188 287.441406 C 147.183594 287.976562 148.28125 288.441406 149.414062 288.839844 L 149.414062 292.800781 C 149.414062 294.964844 151.144531 296.730469 153.308594 296.730469 L 165.027344 296.730469 C 167.191406 296.730469 168.957031 294.964844 168.957031 292.800781 L 168.957031 288.839844 C 170.089844 288.441406 171.152344 287.976562 172.253906 287.441406 L 175.046875 290.304688 C 176.582031 291.804688 179.078125 291.804688 180.574219 290.304688 L 188.863281 282.015625 C 190.394531 280.484375 190.394531 277.988281 188.898438 276.488281 C 188.863281 276.488281 188.863281 276.457031 188.863281 276.457031 L 186.070312 273.660156 C 186.601562 272.5625 187.035156 271.460938 187.433594 270.363281 L 191.394531 270.363281 C 193.558594 270.363281 195.289062 268.597656 195.289062 266.46875 L 195.289062 254.75 C 195.289062 252.585938 193.558594 250.820312 191.394531 250.820312 L 187.398438 250.820312 C 187.035156 249.6875 186.566406 248.589844 186.070312 247.523438 L 188.863281 244.695312 C 190.394531 243.164062 190.394531 240.699219 188.863281 239.203125 L 180.574219 230.914062 C 179.078125 229.382812 176.582031 229.382812 175.046875 230.914062 L 172.253906 233.710938 C 171.152344 233.175781 170.089844 232.742188 168.957031 232.34375 L 168.957031 228.347656 C 168.957031 226.183594 167.191406 224.453125 165.027344 224.453125 Z M 249.289062 210.9375 L 258.542969 210.9375 L 258.542969 216.53125 C 258.542969 218.363281 259.777344 219.960938 261.574219 220.359375 C 265.335938 221.226562 268.933594 222.722656 272.226562 224.785156 C 273.757812 225.753906 275.757812 225.519531 277.054688 224.222656 L 281.015625 220.257812 L 287.542969 226.785156 L 283.613281 230.746094 C 282.316406 232.011719 282.082031 234.042969 283.046875 235.574219 C 285.113281 238.871094 286.578125 242.464844 287.410156 246.261719 C 287.839844 248.023438 289.40625 249.289062 291.238281 249.289062 L 296.898438 249.289062 L 296.898438 258.542969 L 291.238281 258.542969 C 289.441406 258.542969 287.839844 259.777344 287.441406 261.574219 C 286.578125 265.335938 285.113281 268.933594 283.046875 272.226562 C 282.050781 273.757812 282.28125 275.789062 283.582031 277.089844 L 287.542969 281.015625 L 281.015625 287.542969 L 277.089844 283.613281 C 275.789062 282.347656 273.792969 282.117188 272.261719 283.082031 C 268.964844 285.113281 265.335938 286.609375 261.574219 287.441406 C 259.777344 287.839844 258.542969 289.441406 258.542969 291.238281 L 258.542969 296.863281 L 249.289062 296.863281 L 249.289062 291.269531 C 249.257812 289.441406 248.023438 287.875 246.261719 287.441406 C 242.464844 286.609375 238.871094 285.113281 235.605469 283.046875 C 234.042969 282.082031 232.042969 282.316406 230.78125 283.613281 L 226.785156 287.542969 L 220.257812 281.015625 L 224.222656 277.089844 C 225.519531 275.789062 225.71875 273.792969 224.753906 272.261719 C 222.722656 268.964844 221.226562 265.371094 220.390625 261.574219 C 219.960938 259.777344 218.394531 258.542969 216.5625 258.542969 L 210.9375 258.542969 L 210.9375 249.289062 L 216.53125 249.289062 C 218.363281 249.324219 219.960938 248.023438 220.359375 246.261719 C 221.226562 242.5 222.722656 238.871094 224.785156 235.605469 C 225.753906 234.042969 225.519531 232.042969 224.222656 230.78125 L 220.257812 226.785156 L 226.785156 220.257812 L 230.746094 224.222656 C 232.011719 225.484375 234.042969 225.71875 235.574219 224.753906 C 238.871094 222.722656 242.464844 221.226562 246.261719 220.359375 C 247.992188 219.960938 249.257812 218.394531 249.289062 216.5625 Z M 245.359375 203.148438 C 243.199219 203.148438 241.464844 204.878906 241.464844 207.007812 L 241.464844 214 C 239.035156 214.765625 236.707031 215.699219 234.476562 216.898438 L 229.546875 211.96875 C 228.050781 210.472656 225.550781 210.472656 224.019531 211.96875 L 211.96875 224.019531 C 210.472656 225.550781 210.472656 228.050781 211.96875 229.546875 L 216.898438 234.476562 C 215.730469 236.738281 214.765625 239.070312 213.96875 241.5 L 207.007812 241.5 C 204.878906 241.5 203.148438 243.230469 203.148438 245.394531 L 203.148438 262.441406 C 203.148438 264.570312 204.878906 266.335938 207.007812 266.335938 L 214 266.335938 C 214.765625 268.765625 215.699219 271.097656 216.898438 273.359375 L 211.96875 278.285156 C 210.472656 279.820312 210.472656 282.28125 211.96875 283.78125 L 224.019531 295.832031 C 225.550781 297.363281 228.050781 297.363281 229.546875 295.832031 L 234.476562 290.9375 C 236.738281 292.101562 239.035156 293.070312 241.464844 293.800781 L 241.464844 300.792969 C 241.464844 302.921875 243.199219 304.6875 245.359375 304.6875 L 262.441406 304.6875 C 264.570312 304.6875 266.335938 302.921875 266.335938 300.792969 L 266.335938 293.800781 C 268.765625 293.070312 271.097656 292.101562 273.359375 290.9375 L 278.253906 295.832031 C 279.785156 297.363281 282.25 297.363281 283.78125 295.832031 L 295.832031 283.78125 C 297.363281 282.28125 297.363281 279.820312 295.832031 278.285156 L 290.90625 273.359375 C 292.101562 271.097656 293.070312 268.765625 293.800781 266.335938 L 300.757812 266.335938 C 302.921875 266.335938 304.6875 264.570312 304.6875 262.441406 L 304.6875 245.394531 C 304.6875 243.230469 302.921875 241.5 300.757812 241.5 L 293.800781 241.5 C 293.070312 239.035156 292.101562 236.738281 290.9375 234.476562 L 295.832031 229.546875 C 297.363281 228.050781 297.363281 225.550781 295.832031 224.019531 L 283.78125 211.96875 C 282.25 210.472656 279.785156 210.472656 278.253906 211.96875 L 273.328125 216.898438 C 271.097656 215.730469 268.765625 214.765625 266.335938 214 L 266.335938 207.007812 C 266.335938 204.878906 264.570312 203.148438 262.441406 203.148438 Z M 214.867188 148.449219 C 212.703125 148.449219 210.9375 150.179688 210.9375 152.34375 C 210.9375 153.410156 211.371094 154.40625 212.136719 155.140625 L 232.742188 175.78125 L 212.136719 196.421875 C 210.570312 197.921875 210.539062 200.382812 212.035156 201.949219 C 213.5 203.511719 215.996094 203.546875 217.527344 202.082031 C 217.597656 202.015625 217.597656 201.980469 217.628906 201.949219 L 240.800781 178.8125 C 242.429688 177.414062 242.664062 174.949219 241.265625 173.316406 C 241.199219 173.183594 241.101562 173.085938 241 172.984375 L 217.628906 149.648438 C 216.929688 148.882812 215.898438 148.449219 214.867188 148.449219 Z M 144.421875 148.414062 L 144.421875 148.449219 C 143.386719 148.480469 142.421875 148.882812 141.722656 149.613281 L 118.585938 172.785156 C 118.253906 173.050781 117.988281 173.382812 117.785156 173.71875 C 117.71875 173.816406 117.6875 173.882812 117.621094 173.984375 C 117.585938 174.015625 117.585938 174.050781 117.554688 174.082031 C 117.519531 174.148438 117.488281 174.214844 117.488281 174.28125 C 117.453125 174.351562 117.421875 174.417969 117.386719 174.484375 C 117.386719 174.550781 117.355469 174.582031 117.355469 174.648438 C 117.320312 174.714844 117.320312 174.78125 117.289062 174.816406 C 117.289062 174.882812 117.289062 174.914062 117.253906 174.980469 C 117.253906 175.015625 117.253906 175.046875 117.253906 175.082031 C 116.988281 176.511719 117.519531 177.945312 118.617188 178.84375 L 141.722656 201.949219 C 143.222656 203.511719 145.683594 203.546875 147.25 202.046875 C 148.816406 200.550781 148.847656 198.085938 147.351562 196.523438 C 147.316406 196.488281 147.285156 196.457031 147.25 196.390625 L 126.609375 175.746094 L 147.25 155.140625 C 148.816406 153.640625 148.847656 151.144531 147.351562 149.613281 C 146.585938 148.816406 145.519531 148.382812 144.421875 148.414062 Z M 199.386719 140.589844 L 199.386719 140.625 C 199.253906 140.625 199.117188 140.625 198.984375 140.625 C 197.71875 140.691406 196.554688 141.390625 195.855469 142.488281 L 156.871094 204.910156 C 155.671875 206.710938 156.140625 209.105469 157.902344 210.339844 C 159.703125 211.570312 162.132812 211.105469 163.328125 209.304688 C 163.398438 209.207031 163.429688 209.140625 163.496094 209.039062 L 202.515625 146.652344 C 203.679688 144.820312 203.148438 142.421875 201.347656 141.222656 C 200.75 140.859375 200.050781 140.625 199.386719 140.589844 Z M 128.90625 101.574219 C 126.742188 101.574219 125.011719 103.304688 125.011719 105.46875 C 125.011719 107.632812 126.742188 109.363281 128.90625 109.363281 C 131.070312 109.363281 132.800781 107.632812 132.800781 105.46875 C 132.800781 103.304688 131.070312 101.574219 128.90625 101.574219 Z M 113.292969 101.574219 C 111.128906 101.574219 109.363281 103.304688 109.363281 105.46875 C 109.363281 107.632812 111.128906 109.363281 113.292969 109.363281 C 115.421875 109.363281 117.1875 107.632812 117.1875 105.46875 C 117.1875 103.304688 115.421875 101.574219 113.292969 101.574219 Z M 97.644531 101.574219 C 95.515625 101.574219 93.75 103.304688 93.75 105.46875 C 93.75 107.632812 95.515625 109.363281 97.644531 109.363281 C 99.808594 109.363281 101.574219 107.632812 101.574219 105.46875 C 101.574219 103.304688 99.808594 101.574219 97.644531 101.574219 Z M 85.925781 93.75 L 273.460938 93.75 L 273.460938 117.1875 L 85.925781 117.1875 Z M 82.03125 85.925781 C 79.867188 85.925781 78.136719 87.691406 78.136719 89.855469 L 78.136719 261.742188 C 78.136719 263.871094 79.867188 265.601562 82.03125 265.601562 L 115.222656 265.601562 L 115.222656 257.8125 L 85.925781 257.8125 L 85.925781 125.011719 L 273.460938 125.011719 L 273.460938 204.976562 C 273.527344 205.34375 273.691406 205.675781 273.726562 206.042969 C 275.921875 204.277344 278.585938 203.378906 281.25 203.347656 L 281.25 89.855469 C 281.25 87.691406 279.484375 85.925781 277.320312 85.925781 Z M 187.5 7.824219 C 286.777344 7.824219 367.210938 88.222656 367.210938 187.5 C 367.210938 286.777344 286.777344 367.175781 187.5 367.175781 C 88.222656 367.175781 7.824219 286.777344 7.824219 187.5 C 7.824219 88.222656 88.222656 7.824219 187.5 7.824219 Z M 187.5 0 C 83.996094 0 0 83.996094 0 187.5 C 0 291.003906 83.996094 375 187.5 375 C 291.003906 375 375 291.003906 375 187.5 C 375 83.996094 291.003906 0 187.5 0 " fill-opacity="1" fill-rule="nonzero"/></svg>